<svg width="40" height="40" viewBox="0 0 40 40" fill="none" xmlns="http://www.w3.org/2000/svg">
<circle cx="20" cy="20" r="19" stroke="black" stroke-opacity="0.5" stroke-width="2"/>
<path d="M28.8 20.2083C28.8 19.5583 28.7417 18.9333 28.6333 18.3333H20V21.8792H24.9333C24.7208 23.025 24.075 23.9958 23.1042 24.6458V26.9458H26.0667C27.8 25.35 28.8 23 28.8 20.2083Z" fill="#4285F4"/>
<path d="M20 29.1667C22.475 29.1667 24.55 28.3458 26.0667 26.9458L23.1042 24.6458C22.2834 25.1958 21.2334 25.5208 20 25.5208C17.6125 25.5208 15.5917 23.9083 14.8708 21.7417H11.8083V24.1167C13.3167 27.1125 16.4167 29.1667 20 29.1667Z" fill="#34A853"/>
<path d="M14.8709 21.7417C14.6875 21.1917 14.5834 20.6042 14.5834 20C14.5834 19.3958 14.6875 18.8083 14.8709 18.2583V15.8833H11.8084C11.1667 17.1607 10.8328 18.5705 10.8334 20C10.8334 21.4792 11.1875 22.8792 11.8084 24.1167L14.8709 21.7417Z" fill="#FBBC05"/>
<path d="M20 14.4792C21.3459 14.4792 22.5542 14.9417 23.5042 15.85L26.1334 13.2208C24.5459 11.7417 22.4708 10.8333 20 10.8333C16.4167 10.8333 13.3167 12.8875 11.8083 15.8833L14.8708 18.2583C15.5917 16.0917 17.6125 14.4792 20 14.4792Z" fill="#EA4335"/>
</svg>
